Coordinates
version=1
nRows=14
nColumns=33
inDegrees=yes

Units are S.I. units (second, meters, Newtons, ...)
Angles are in degrees.

endheader
time	ground_thorax_rot_x	ground_thorax_rot_y	ground_thorax_rot_z	ground_thorax_tx	ground_thorax_ty	ground_thorax_tz	clav_prot_r	clav_elev_r	scapula_abduction_r	scapula_elevation_r	scapula_upward_rot_r	scapula_winging_r	shoulder_elv_r	plane_of_elev_r	axial_rot_r	elbow_flexion_r	pro_sup_r	wrist_flex_r	wrist_dev_r	clav_prot_l	clav_elev_l	scapula_abduction_l	scapula_elevation_l	scapula_upward_rot_l	scapula_winging_l	shoulder_elv_l	plane_of_elev_l	axial_rot_l	elbow_flexion_l	pro_sup_l	wrist_flex_l	wrist_dev_l
      5.48000000	    -25.56977430	    -33.77161790	     43.13594567	     -8.35211553	    827.28751533	    -53.01690963	     26.78572123	    -45.00000000	     40.40125076	    -45.00000000	    -45.00000000	   1697.47020785	   1153.67562188	     22.36761958	   -158.54645109	   2518.03313960	    160.23437712	     13.39167492	     15.39765390	     -0.16104045	     32.01699511	    -31.31182815	    -45.00000000	    -45.00000000	   3684.68261583	  -2606.69413679	    131.23839228	    -91.21823956	   1790.11942109	     46.33215497	     14.08139094	    -18.34571394
      5.49000000	    -25.12728462	    -34.13721938	     43.94224860	     -4.66136615	    825.46268671	    -52.78690218	     27.06864240	    -45.00000000	     40.43499163	    -45.00000000	    -45.00000000	   1697.51989688	   1153.50092283	     22.39956670	   -158.23314187	   2518.14518148	    160.90625974	     13.30720965	     15.32777314	     -0.35212537	     31.94450777	    -31.01216466	    -45.00000000	    -45.00000000	   3684.51423434	  -2606.74673136	    131.19384276	    -91.50937941	   1790.05803385	     46.38182379	     14.00829368	    -18.08194428
      5.50000000	    -24.32899302	    -34.73362221	     45.20277360	     -0.96631438	    823.59902178	    -52.54435646	     27.33923274	    -45.00000000	     40.95424434	    -45.00000000	    -45.00000000	   1697.28725590	   1153.18704282	     22.34109792	   -157.77240580	   2518.15942893	    161.53367334	     13.02383170	     15.47458999	     -0.95741696	     31.53090030	    -30.54613565	    -45.00000000	    -45.00000000	   3684.31714529	  -2606.91232594	    131.39408330	    -91.79256553	   1789.96450200	     46.41336091	     14.09684004	    -17.94372670
      5.51000000	    -23.97009464	    -34.93228127	     45.82179379	      2.72781822	    821.70508806	    -52.28853513	     27.19388261	    -45.00000000	     40.97698284	    -45.00000000	    -45.00000000	   1697.67604402	   1153.19984192	     22.02674511	   -157.57838603	   2518.13508168	    162.11186875	     12.87389212	     15.37577019	     -0.57354821	     31.51322321	    -30.50099577	    -45.00000000	    -45.00000000	   3683.97182705	  -2607.24683115	    131.64683506	    -92.38674934	   1789.99275147	     46.43259070	     14.00877485	    -17.65660423
      5.52000000	    -23.78900556	    -35.06360043	     46.30870429	      6.41617024	    819.78651421	    -52.01884242	     27.16522515	    -45.00000000	     40.69516047	    -45.00000000	    -45.00000000	   1697.85185541	   1152.99366729	     22.05501949	   -157.44657024	   2518.26133229	    162.72294887	     12.79524354	     15.29259434	     -0.45689014	     31.50912335	    -30.43844047	    -45.00000000	    -45.00000000	   3683.88792042	  -2607.41986584	    131.57555491	    -92.73006833	   1790.01904735	     46.41602477	     13.95594058	    -17.45936241
      5.53000000	    -23.38464879	    -35.31128719	     47.02784733	     10.08788204	    817.84955610	    -51.73645560	     27.24792901	    -45.00000000	     40.69753890	    -45.00000000	    -45.00000000	   1697.98197528	   1152.83965469	     21.95333517	   -157.11718611	   2518.30688688	    163.41004507	     12.67725646	     15.23550186	     -0.48676427	     31.39781163	    -30.22020637	    -45.00000000	    -45.00000000	   3683.67292086	  -2607.57627179	    131.65961945	    -93.15317781	   1789.99809168	     46.40222179	     13.91466795	    -17.23808958
      5.54000000	    -22.97924642	    -35.52776350	     47.73469088	     13.74034065	    815.89420313	    -51.44205209	     27.31865683	    -45.00000000	     40.68162909	    -45.00000000	    -45.00000000	   1698.12233247	   1152.68100696	     21.83677228	   -156.75567372	   2518.37242058	    164.09373059	     12.56749242	     15.16468356	     -0.49689320	     31.31318869	    -30.01552261	    -45.00000000	    -45.00000000	   3683.46391525	  -2607.77894104	    131.75725403	    -93.61931131	   1789.98615909	     46.37942227	     13.86282123	    -17.01571619
      5.55000000	    -22.60070417	    -35.70231409	     48.43004259	     17.36075034	    813.92534205	    -51.13839166	     27.39366939	    -45.00000000	     40.62039770	    -45.00000000	    -45.00000000	   1698.24925940	   1152.53695262	     21.73332032	   -156.37602938	   2518.46961872	    164.77824596	     12.47379697	     15.07724413	     -0.52010652	     31.24345535	    -29.81845843	    -45.00000000	    -45.00000000	   3683.26877267	  -2607.96793329	    131.82068323	    -94.09092953	   1789.97737470	     46.34818059	     13.81703772	    -16.80999193
      5.56000000	    -22.14374354	    -35.86711789	     49.18958941	     20.94096007	    811.94566435	    -50.82736875	     27.45488247	    -45.00000000	     40.67410709	    -45.00000000	    -45.00000000	   1698.34429176	   1152.41507139	     21.55637398	   -155.91863293	   2518.52463801	    165.45043486	     12.36610805	     14.99310055	     -0.56207182	     31.12371340	    -29.57833569	    -45.00000000	    -45.00000000	   3682.99226583	  -2608.20187771	    131.95322064	    -94.62577199	   1789.95428580	     46.32507276	     13.76913143	    -16.59009829
      5.57000000	    -21.72826683	    -36.06099301	     49.87792524	     24.47120299	    809.96044523	    -50.51244548	     27.52549836	    -45.00000000	     40.64747493	    -45.00000000	    -45.00000000	   1698.48493842	   1152.26422961	     21.43352609	   -155.42776132	   2518.60731354	    166.10134140	     12.28182689	     14.88189447	     -0.59975286	     31.05225704	    -29.32980763	    -45.00000000	    -45.00000000	   3682.77623823	  -2608.41308010	    132.10300475	    -95.15887120	   1789.94765672	     46.29425613	     13.70118326	    -16.37280481
      5.58000000	    -21.33657272	    -36.16366930	     50.54476258	     27.94079364	    807.97709259	    -50.19668655	     27.60730456	    -45.00000000	     40.58507576	    -45.00000000	    -45.00000000	   1698.61963856	   1152.13168418	     21.31659722	   -154.93708425	   2518.79121625	    166.73870907	     12.17830860	     14.75198778	     -0.63043336	     30.97917551	    -29.09857756	    -45.00000000	    -45.00000000	   3682.54667446	  -2608.60452389	    132.18098527	    -95.67296239	   1789.94097442	     46.25858019	     13.64718640	    -16.17530085
      5.59000000	    -20.90914006	    -36.23865404	     51.24000688	     31.34001924	    806.00441293	    -49.88422977	     27.67130387	    -45.00000000	     40.59454135	    -45.00000000	    -45.00000000	   1698.67920573	   1152.01029495	     21.15023813	   -154.44671683	   2518.82314240	    167.35629958	     12.11244902	     14.65177234	     -0.68659443	     30.87320450	    -28.87174347	    -45.00000000	    -45.00000000	   3682.32134073	  -2608.83300911	    132.29033503	    -96.20436179	   1789.90711875	     46.22331325	     13.61739351	    -15.99764206
      5.60000000	    -20.53059475	    -36.32257958	     51.88762147	     34.66015161	    804.05132680	    -49.57818810	     27.74361085	    -45.00000000	     40.50337281	    -45.00000000	    -45.00000000	   1698.76765864	   1151.88419782	     21.03948016	   -153.86286179	   2518.93495153	    167.95746644	     12.05474862	     14.51590096	     -0.72256198	     30.81049384	    -28.62690079	    -45.00000000	    -45.00000000	   3682.12752030	  -2609.01834138	    132.37229567	    -96.70342166	   1789.88293958	     46.17839314	     13.56311284	    -15.81469591
      5.61000000	    -20.18173248	    -36.38067480	     52.49520859	     37.89334760	    802.12590626	    -49.28157354	     27.85531044	    -45.00000000	     40.38234752	    -45.00000000	    -45.00000000	   1698.84506491	   1151.74751589	     20.96027808	   -153.25727505	   2519.09691889	    168.52758111	     11.98709185	     14.39433245	     -0.77478016	     30.76956856	    -28.37328038	    -45.00000000	    -45.00000000	   3681.99473799	  -2609.18813197	    132.39827613	    -97.21388694	   1789.85879305	     46.11117375	     13.52205557	    -15.65776265
